<mxfile host="app.diagrams.net" modified="2023-05-27T01:38:34.206Z" agent="Mozilla/5.0 (Windows NT 10.0; Win64; x64) AppleWebKit/537.36 (KHTML, like Gecko) Chrome/109.0.0.0 Safari/537.36" version="21.3.4" etag="9UwVSJX_N71q3cf_F956" type="github">
  <diagram name="Page-1" id="fuk9BJNqaHm7R7U8NTex">
    <mxGraphModel>
      <root>
        <mxCell id="0" />
        <mxCell id="1" parent="0" />
      </root>
    </mxGraphModel>
  </diagram>
</mxfile>
